<svg xmlns="http://www.w3.org/2000/svg" xmlns:xlink="http://www.w3.org/1999/xlink" viewBox="0,0,256,256" width="48px" height="48px" fill-rule="nonzero"><g fill="#ffffff" fill-rule="nonzero" stroke="none" stroke-width="1" stroke-linecap="butt" stroke-linejoin="miter" stroke-miterlimit="10" stroke-dasharray="" stroke-dashoffset="0" font-family="none" font-weight="none" font-size="none" text-anchor="none" style="mix-blend-mode: normal"><g transform="scale(10.66667,10.66667)"><path d="M5,3c-1.1,0 -2,0.9 -2,2v14c0,1.1 0.9,2 2,2h14c1.1,0 2,-0.9 2,-2v-14c0,-1.1 -0.9,-2 -2,-2zM5,5h14v14h-14zM7.80078,6.30078c-0.9,0 -1.40039,0.49922 -1.40039,1.19922c0,0.7 0.49883,1.19922 1.29883,1.19922c0.9,0 1.40039,-0.49922 1.40039,-1.19922c0,-0.7 -0.49883,-1.19922 -1.29883,-1.19922zM6.5,10v7h2.5v-7zM11.09961,10v7h2.5v-3.80078c0,-1.1 0.89961,-1.29883 1.09961,-1.29883c0.2,0 0.90039,0.19883 0.90039,1.29883v3.80078h2.40039v-3.80078c0,-2.2 -0.99922,-3.19922 -2.19922,-3.19922c-1.2,0 -1.90117,0.4 -2.20117,1v-1z"></path></g></g></svg>